<?xml version="1.0" encoding="utf-8"?>
<!-- Generator: Adobe Illustrator 27.5.0, SVG Export Plug-In . SVG Version: 6.00 Build 0)  -->
<svg version="1.1" id="Layer_3" xmlns="http://www.w3.org/2000/svg" xmlns:xlink="http://www.w3.org/1999/xlink" x="0px" y="0px"
	 viewBox="0 0 155.2 41.6" style="enable-background:new 0 0 155.2 41.6;" xml:space="preserve">
<style type="text/css">
	.st0{fill:#FFFFFF;}
	.st1{fill-rule:evenodd;clip-rule:evenodd;fill:#013989;}
	.st2{fill:#013989;}
</style>
<path class="st0" d="M19.2,30.4c-1.1,0-2.3-0.2-3.3-0.6c-1.9-0.8-3.4-2.4-4.1-4.3c-0.4-1.1-0.6-2.2-0.5-3.3c0-1.6,0.3-3.2,1-4.6
	c0.6-1.4,1.5-2.7,2.6-3.8s2.5-2,3.9-2.6c1.5-0.7,3.2-1,4.9-1c1.8-0.1,3.6,0.4,5.1,1.4c1.3,1,2,2.5,1.9,4.1c0,4.2-3.8,6.3-11.3,6.3
	H18c-0.5,0-1,0-1.5-0.1v0.5c-0.1,1.1,0.3,2.3,0.9,3.2c0.7,0.9,1.7,1.3,2.8,1.2c1,0,2-0.2,2.8-0.7c0.9-0.5,1.6-1.1,2.1-2l4,1.2
	c-0.5,0.8-1.1,1.5-1.8,2.1c-0.7,0.6-1.5,1.2-2.4,1.6c-1,0.4-1.9,0.8-2.9,1C21.1,30.3,20.1,30.4,19.2,30.4z M22.8,13.7
	c-0.7,0-1.4,0.1-2,0.4c-0.6,0.3-1.2,0.6-1.7,1.1s-0.9,1-1.3,1.6c-0.4,0.6-0.7,1.2-0.9,1.9c0.4,0,0.8,0,1.2,0h1.2c1,0,2-0.1,3-0.2
	c0.7-0.1,1.4-0.3,2-0.6c0.4-0.2,0.8-0.5,1.1-0.9c0.2-0.3,0.3-0.8,0.3-1.2c0-0.7-0.3-1.3-0.8-1.6C24.3,13.9,23.5,13.7,22.8,13.7
	L22.8,13.7L22.8,13.7z"/>
<g>
	<polygon class="st1" points="65.3,12.9 77.6,0.7 97.7,20.8 90.2,28.3 80.2,28.3 80.2,18.4 83.9,18.4 83.9,12.9 80.2,12.9 80.2,6.5 
		74.7,6.5 74.7,12.9 	"/>
	<polygon class="st1" points="57.4,20.8 59.8,18.4 74.7,18.4 74.7,28.3 74.7,33.8 80.2,33.8 84.7,33.8 77.6,41 	"/>
	<path class="st2" d="M143.7,31.5v-8.3h-6.8v8.3h-5.2V10.8h5.2v8h6.8v-8h5.2v20.8L143.7,31.5L143.7,31.5z M123.6,31.9
		c-3.1,0-5.6-1-7.3-2.9c-1.7-1.9-2.6-4.5-2.6-7.8s0.9-6,2.7-7.9c1.8-1.9,4.3-2.9,7.6-2.9c1.6,0,3.3,0.4,5,1.1l-1.2,4.4
		c-1.6-0.6-2.9-0.9-3.8-0.9c-1.7,0-2.9,0.5-3.7,1.5c-0.8,1-1.2,2.6-1.2,4.6s0.4,3.6,1.1,4.6c0.8,1,2,1.5,3.6,1.5
		c1.4,0,2.8-0.4,4.2-1.2l1,4.5C127.5,31.4,125.7,31.9,123.6,31.9z M112.1,27.1v4.4H98.7V10.8H112v4.4h-8v3.6h6.9v4.4H104V27h8.1
		V27.1z"/>
	<path class="st2" d="M48.6,31.5V10.8h5.2v16.3h7.7v4.4C61.5,31.5,48.6,31.5,48.6,31.5z M32.9,16.6c-0.7,1-1.1,2.6-1.1,4.5
		c0,2,0.4,3.5,1.1,4.5s1.8,1.6,3.2,1.6s2.4-0.5,3.1-1.6c0.7-1,1.1-2.6,1.1-4.5c0-2-0.4-3.5-1.1-4.5c-0.7-1-1.8-1.6-3.1-1.6
		C34.7,15,33.7,15.6,32.9,16.6z M43.2,13.4c1.7,2,2.6,4.6,2.6,7.8S44.9,27,43.2,29s-4.1,2.9-7.1,2.9s-5.3-1-7.1-2.9
		c-1.7-1.9-2.6-4.6-2.6-7.8c0-3.3,0.9-5.9,2.6-7.8s4.1-2.9,7.1-2.9C39.1,10.4,41.4,11.4,43.2,13.4z M18.9,31.5H13
		c-1.3-2.7-2.6-6-3.9-9.9s-2.2-7.5-2.8-10.9h5.4c0.6,3,1.3,6,2.1,9s1.5,5.3,2.1,6.8c0.6-1.5,1.3-3.8,2.1-6.8c0.8-3,1.5-6,2.1-9h5.4
		c-0.7,3.4-1.6,7-2.8,10.9C21.6,25.5,20.3,28.8,18.9,31.5z"/>
</g>
</svg>
